<svg width="22" height="22" viewBox="0 0 22 22" fill="none" xmlns="http://www.w3.org/2000/svg">
<path d="M10.0271 17.0262C10.0271 17.4404 10.3629 17.7762 10.7771 17.7762C11.1913 17.7762 11.5271 17.4404 11.5271 17.0262H10.0271ZM6.77712 14.0262C6.77712 16.2353 8.56798 18.0262 10.7771 18.0262C12.9863 18.0262 14.7771 16.2353 14.7771 14.0262C14.7771 11.817 12.9863 10.0262 10.7771 10.0262C8.56798 10.0262 6.77712 11.817 6.77712 14.0262ZM1.91712 7.39619L2.38381 7.98331L2.38595 7.98159L1.91712 7.39619ZM0.807121 10.3062L1.54688 10.1826L1.54608 10.178L0.807121 10.3062ZM2.13712 18.2662L1.39737 18.3898L1.39761 18.3912L2.13712 18.2662ZM19.4171 18.2662L20.1565 18.392L20.1569 18.3898L19.4171 18.2662ZM20.7471 10.3062L21.4869 10.4298L21.4873 10.427L20.7471 10.3062ZM19.6371 7.39619L20.1075 6.81201L20.1054 6.81037L19.6371 7.39619ZM12.7071 1.85619L12.2373 2.44077L12.2388 2.442L12.7071 1.85619ZM11.5271 17.0262V14.0262H10.0271V17.0262H11.5271ZM8.37829 1.26078L1.44829 6.81078L2.38595 7.98159L9.31595 2.43159L8.37829 1.26078ZM1.45044 6.80907C0.930316 7.2225 0.54158 7.8291 0.305136 8.44884C0.0687317 9.06849 -0.0453877 9.77982 0.0681564 10.4344L1.54608 10.178C1.48963 9.85255 1.54051 9.41888 1.7066 8.98353C1.87266 8.54827 2.12393 8.18987 2.3838 7.9833L1.45044 6.80907ZM0.0673754 10.4298L1.39738 18.3898L2.87687 18.1426L1.54687 10.1826L0.0673754 10.4298ZM1.39761 18.3912C1.69856 20.1718 3.37092 21.5862 5.17712 21.5862V20.0862C4.10332 20.0862 3.05568 19.2005 2.87663 18.1412L1.39761 18.3912ZM5.17712 21.5862H16.3771V20.0862H5.17712V21.5862ZM16.3771 21.5862C18.174 21.5862 19.8553 20.1613 20.1565 18.392L18.6778 18.1403C18.4989 19.1911 17.4402 20.0862 16.3771 20.0862V21.5862ZM20.1569 18.3898L21.4869 10.4298L20.0074 10.1826L18.6774 18.1426L20.1569 18.3898ZM21.4873 10.427C21.5937 9.77516 21.4773 9.06659 21.2416 8.44884C21.006 7.83129 20.6211 7.2256 20.1075 6.81202L19.1668 7.98035C19.4231 8.18678 19.6732 8.54608 19.8401 8.98353C20.007 9.42078 20.0605 9.85721 20.0069 10.1853L21.4873 10.427ZM20.1054 6.81037L13.1754 1.27037L12.2388 2.442L19.1688 7.982L20.1054 6.81037ZM13.177 1.2716C11.834 0.192231 9.71356 0.190043 8.37793 1.26107L9.31631 2.4313C10.1007 1.80233 11.4402 1.80014 12.2373 2.44077L13.177 1.2716Z" fill="white"/>
</svg>
