<svg width="600" height="400" viewBox="0 0 600 400" fill="none" xmlns="http://www.w3.org/2000/svg">
<g clip-path="url(#clip0_14_2)">
<rect width="600" height="400" fill="white"/>
<rect width="600" height="400" fill="#201F1F"/>
<path d="M109.896 241V149.48H116.04V241H109.896ZM148.235 241V157.416H151.051L205.579 220.136C207.542 222.355 209.334 224.573 210.955 226.792C212.662 228.925 213.558 230.035 213.643 230.12C213.472 228.072 213.387 224.061 213.387 218.088V157.928H219.275V241.512H216.459L160.907 177.768L153.867 169.192C154.038 170.899 154.123 174.909 154.123 181.224V241H148.235ZM342.235 241V157.928H348.123V241H342.235ZM378.86 241V157.416H381.676L436.204 220.136C438.167 222.355 439.959 224.573 441.58 226.792C443.287 228.925 444.183 230.035 444.268 230.12C444.097 228.072 444.012 224.061 444.012 218.088V157.928H449.9V241.512H447.084L391.532 177.768L384.492 169.192C384.663 170.899 384.748 174.909 384.748 181.224V241H378.86ZM480.61 241V157.928H519.394V163.048H486.498V193.256H516.194V198.248H486.498V235.624H520.674V241H480.61Z" fill="white"/>
<path d="M245.252 268C243.264 268.001 240.955 268.793 238.635 266.281C236.426 263.768 235.32 260.837 235.319 257.486C235.319 254.973 235.649 252.544 236.311 250.198C236.973 247.685 237.691 245.339 238.463 243.161L238.463 242.407C239.346 240.396 240.451 237.341 241.776 236C242.107 235.162 242.437 235.537 242.768 234.364C243.209 233.024 245.837 231.168 246.5 231L245.252 232.856C244.038 235.202 242.879 237.882 241.776 240.898L239.792 256.48C240.455 257.987 241.505 258.741 242.94 258.74C244.928 258.74 247.358 258.153 250.229 256.979C253.1 255.973 255.971 254.8 258.842 253.459C261.714 252.118 264.143 250.944 266.131 249.938L266.131 249.687C266.683 249.687 267.235 249.603 267.787 249.435C268.45 249.1 268.891 248.43 269.112 247.425L268.946 246.671L270.271 246.922C270.934 246.419 271.596 245.916 272.259 245.413C272.921 244.91 273.639 244.575 274.412 244.407C274.854 243.737 276.013 242.313 277.89 240.134C279.767 237.788 281.865 235.359 284.183 232.845C286.502 230.164 288.599 227.818 290.476 225.807C292.353 223.796 293.513 222.623 293.954 222.288L295 220L296.438 218.517L296.438 216.004C296.658 213.491 295.884 211.565 294.117 210.225C292.349 208.718 290.03 207.462 287.158 206.457C284.286 205.453 281.193 204.449 277.88 203.444C274.677 202.44 271.584 201.101 268.602 199.426C265.73 197.584 263.354 195.239 261.476 192.392C259.708 189.544 258.824 185.775 258.822 181.084L257.994 181.838L257.663 181.084C257.662 177.566 258.986 173.796 261.635 169.775C264.395 165.753 267.873 161.815 272.069 157.96C276.265 153.938 280.626 150.252 285.153 146.9C289.791 143.38 294.042 140.447 297.907 138.1C301.882 135.586 302.902 135.506 305 134.5C306.878 134.835 307.954 134.995 309.5 136C311.157 136.837 313.188 136.736 313.5 139C313.467 138.758 314.79 139.729 314.743 139.658C314.577 139.405 314.743 140.5 314.743 140.5C314.5 140 315.075 142.338 314.743 141.5L315.243 142C315.796 142 314.307 141.83 315.743 142.5C317.29 143.002 314.476 142.163 316.243 143C318.011 143.837 316.418 143.163 317.743 144C318.535 144.5 316.867 145.494 317.089 146.164L317.589 146.664L318.089 146.664C318.089 146.664 318.589 147.664 319.015 148.164C319.126 150.342 319.345 149.664 319.345 150.164L319.345 150.588L319.345 151.164L319.345 152.164L319.345 152.817L319.345 154L319.345 154.731C318.904 156.071 319.345 158.28 319.782 159.704C320.014 160.461 317.718 163.199 317.5 163.5C316.286 165.176 313.98 169.484 313.98 170C313.672 170.484 311.5 175 310.839 176L310.839 174.787L311.334 169.761L312 164.5C312.331 161.652 314.449 160.183 315 157C315.551 153.817 313.318 153.509 313.98 151.164C313.096 149.153 312.046 147.311 310.831 145.636C309.726 143.961 308.345 143.124 306.688 143.124C304.7 143.125 301.94 144.047 298.406 145.891C294.872 147.567 291.008 149.914 286.812 152.93C282.726 155.78 278.861 159.048 275.218 162.734C271.574 166.421 268.649 170.191 266.441 174.045C264.233 177.899 264.788 185.482 265.12 189C264.678 188.497 262.909 183.931 262.799 183.093C262.688 182.256 262.633 181.418 262.632 180.58C262.632 179.743 262.632 178.905 262.632 178.067C262.742 177.23 262.852 176.476 262.962 175.805C262.19 177.481 261.804 179.408 261.804 181.586C261.805 185.606 262.911 188.706 265.12 190.883C267.33 193.06 270.202 194.735 273.736 195.907C277.271 197.078 281.026 198.166 285.002 199.17C288.978 200.007 292.734 201.011 296.268 202.183C299.803 203.355 302.675 205.113 304.884 207.458C307.093 209.635 308.199 212.734 308.2 216.755C308.2 218.933 307.87 220.943 307.208 222.786C306.545 224.462 305.938 226.221 305.387 228.064C304.172 228.735 303.399 229.656 303.068 230.829C302.737 232.002 300.662 232.492 300 234C299.117 234.335 297.935 233.989 296.5 236C295.175 237.843 295.663 238.167 295 238C294.558 238.335 293.371 237.108 293 240.5C292.558 241.003 291.721 240.662 291.5 241.5L290 242.392C288.786 244.905 286.871 245.486 284 248C281.129 250.514 278.277 253.321 274.412 255.5C270.658 257.679 266.774 259.824 262.799 261.5C258.934 263.344 256.923 265.275 253.5 266.281C250.077 267.287 247.351 267.999 245.252 268ZM309.018 179.813L310 176L310.5 176.5L309.018 179.813ZM299.087 213L299.418 209.972L298.921 208.967L298.761 210.225L299.087 213ZM306.378 222L306.378 220.023L305.384 217.761L305.219 219.017L305.219 220.023L306.378 222ZM303.232 224.798L303.5 223.5L304 221L304.39 219.269C303.286 220.945 303.11 222.157 303 224L303.232 224.798ZM303.399 228.316L305.055 225.551L305.055 225.3L303.232 227L302.736 228.065L303.399 228.316ZM298.762 232.841L301.578 231.333L301.578 227.5L299.921 231.333L299.087 231.333L298.761 232.59L298.762 232.841Z" fill="#730E0E"/>
</g>
<defs>
<clipPath id="clip0_14_2">
<rect width="600" height="400" fill="white"/>
</clipPath>
</defs>
</svg>
