<svg width="16" height="25" viewBox="0 0 16 25" fill="none" xmlns="http://www.w3.org/2000/svg">
<path d="M2.15764 24.8148C1.80057 24.8149 1.38579 24.9573 0.969087 24.506C0.57222 24.0547 0.373703 23.5282 0.373535 22.9263C0.37341 22.475 0.432795 22.0386 0.551701 21.6173C0.670597 21.1659 0.799424 20.7446 0.938174 20.3533L0.938136 20.2179C1.09673 19.8568 1.29519 19.3079 1.53317 19.0671C1.59264 18.9166 1.65193 18.984 1.71138 18.7733C1.79066 18.5325 2.26272 18.1992 2.38173 18.169L2.15764 18.5024C1.93955 18.9237 1.73139 19.4052 1.53317 19.9469L1.17688 22.7456C1.29598 23.0163 1.48447 23.1517 1.74236 23.1516C2.09942 23.1515 2.53581 23.0461 3.05151 22.8353C3.56723 22.6546 4.08294 22.4438 4.59863 22.203C5.11433 21.9621 5.55068 21.7513 5.9077 21.5707L5.90769 21.5255C6.00687 21.5255 6.10605 21.5104 6.20523 21.4803C6.32423 21.4201 6.40355 21.2997 6.44318 21.1191L6.41338 20.9837L6.65144 21.0288C6.77044 20.9385 6.88943 20.8482 7.00843 20.7579C7.12743 20.6676 7.25635 20.6074 7.3952 20.5772C7.47452 20.4568 7.68273 20.201 8.01986 19.8097C8.35697 19.3883 8.73376 18.9519 9.15021 18.5004C9.56665 18.0188 9.94344 17.5974 10.2806 17.2362C10.6177 16.875 10.8259 16.6643 10.9053 16.6041L11.0931 16.1933L11.3514 15.927L11.3513 15.4756C11.3908 15.0242 11.2519 14.6782 10.9344 14.4375C10.6169 14.1668 10.2003 13.9412 9.68448 13.7608C9.16867 13.5804 8.61318 13.4 8.01802 13.2196C7.44269 13.0392 6.88719 12.7987 6.35151 12.4979C5.83565 12.167 5.40904 11.7459 5.07166 11.2344C4.75413 10.7229 4.59524 10.0459 4.59501 9.20335L4.44627 9.3388L4.38672 9.20341C4.38654 8.57148 4.6244 7.89435 5.10029 7.17202C5.59601 6.44968 6.22068 5.74235 6.9743 5.05003C7.72791 4.32762 8.51128 3.66539 9.32444 3.06333C10.1574 2.43117 10.921 1.90436 11.6152 1.48288C12.3292 1.03131 12.5124 1.01684 12.8892 0.836182C13.2265 0.896271 13.4197 0.925125 13.6975 1.1056C13.9951 1.25597 14.3599 1.23787 14.4159 1.64444C14.41 1.601 14.6477 1.77534 14.6393 1.76263C14.6093 1.71719 14.6393 1.91387 14.6393 1.91387C14.5956 1.82405 14.6988 2.24392 14.6393 2.09348L14.7291 2.18329C14.8283 2.18326 14.561 2.1528 14.8189 2.2731C15.0966 2.3633 14.5913 2.21253 14.9087 2.3629C15.2261 2.51327 14.94 2.39213 15.1781 2.54252C15.3203 2.63233 15.0208 2.8108 15.0605 2.93115L15.1503 3.02096H15.2401C15.2401 3.02096 15.3299 3.20057 15.4066 3.29038C15.4265 3.68157 15.4658 3.5598 15.4658 3.64961V4.46994C15.3865 4.7107 15.4658 5.10749 15.5442 5.36313C15.586 5.49915 15.1736 5.99092 15.1344 6.04501C14.9163 6.34598 14.5021 7.11982 14.5021 7.21251C14.4469 7.29944 14.0567 8.11058 13.938 8.2902V8.0723L14.027 7.16953L14.1465 6.22462C14.2059 5.71305 14.5863 5.44928 14.6854 4.87751C14.7844 4.30574 14.3832 4.25054 14.5021 3.82923C14.3433 3.46817 14.1548 3.13721 13.9365 2.83636C13.738 2.5355 13.49 2.38511 13.1925 2.38519C12.8354 2.38529 12.3395 2.55093 11.7048 2.88212C11.0701 3.18321 10.376 3.60469 9.6223 4.14655C8.88847 4.65831 8.19433 5.24529 7.53989 5.90749C6.88545 6.56969 6.35996 7.2469 5.96341 7.93912C5.56686 8.63133 5.66653 9.99329 5.72621 10.6252C5.64684 10.5349 5.32912 9.7147 5.30924 9.56425C5.28936 9.4138 5.27941 9.26334 5.27936 9.11288C5.27932 8.96242 5.27928 8.81196 5.27923 8.6615C5.29903 8.51104 5.31883 8.37562 5.33863 8.25525C5.19986 8.55621 5.13052 8.90228 5.13063 9.29347C5.13083 10.0157 5.32936 10.5723 5.72621 10.9634C6.12306 11.3545 6.63891 11.6553 7.27375 11.8657C7.9086 12.0762 8.58311 12.2716 9.2973 12.4519C10.0115 12.6022 10.686 12.7826 11.3208 12.993C11.9557 13.2035 12.4715 13.5193 12.8684 13.9405C13.2652 14.3316 13.4638 14.8882 13.464 15.6104C13.4641 16.0016 13.4047 16.3627 13.2857 16.6938C13.1668 16.9947 13.0578 17.3107 12.9587 17.6417C12.7405 17.7622 12.6017 17.9277 12.5422 18.1384C12.4828 18.349 12.1101 18.437 11.9911 18.7079C11.8325 18.7681 11.6203 18.7059 11.3625 19.0671C11.1245 19.3982 11.2121 19.4564 11.0931 19.4264C11.0137 19.4866 10.8005 19.2662 10.7338 19.8754C10.6545 19.9657 10.504 19.9045 10.4644 20.055L10.195 20.2152C9.9769 20.6666 9.63293 20.771 9.1173 21.2225C8.60166 21.674 8.08939 22.1782 7.3952 22.5696C6.72085 22.961 6.02329 23.3462 5.30924 23.6473C4.61504 23.9785 4.25393 24.3253 3.63904 24.506C3.02414 24.6867 2.53454 24.8147 2.15764 24.8148ZM13.6109 8.97515L13.7873 8.2902L13.8771 8.38001L13.6109 8.97515ZM11.8271 14.936L11.8866 14.3921L11.7973 14.2116L11.7687 14.4375L11.8271 14.936ZM13.1368 16.5525L13.1368 16.1973L12.9582 15.7911L12.9285 16.0168L12.9285 16.1973L13.1368 16.5525ZM12.5717 17.0551L12.6198 16.8219L12.7096 16.3729L12.7797 16.062C12.5814 16.3629 12.5497 16.5807 12.53 16.9117L12.5717 17.0551ZM12.6016 17.687L12.899 17.1904L12.899 17.1452L12.5717 17.4506L12.4826 17.6419L12.6016 17.687ZM11.7687 18.4997L12.2746 18.2288V17.5404L11.9769 18.2288H11.8271L11.7687 18.4545L11.7687 18.4997Z" fill="white"/>
</svg>
